<?xml version="1.0" standalone="no"?>
<!DOCTYPE svg PUBLIC "-//W3C//DTD SVG 20010904//EN"
 "http://www.w3.org/TR/2001/REC-SVG-20010904/DTD/svg10.dtd">
<svg version="1.0" xmlns="http://www.w3.org/2000/svg"
 width="300.000000pt" height="152.000000pt" viewBox="0 0 300.000000 152.000000"
 preserveAspectRatio="xMidYMid meet">
<metadata>
Created by potrace 1.10, written by Peter Selinger 2001-2011
</metadata>
<g transform="translate(0.000000,152.000000) scale(0.050000,-0.050000)"
fill="#000000" stroke="none">
<path d="M2827 2975 c12 -48 37 -230 132 -931 77 -568 78 -532 -9 -515 -39 7
-70 5 -70 -6 0 -10 32 -70 70 -134 39 -64 70 -124 70 -133 0 -47 38 -2 97 114
36 72 74 126 83 120 9 -5 262 30 563 79 301 49 579 92 617 95 94 8 94 10 -99
486 -89 220 -191 483 -226 585 -80 227 -68 229 -206 -30 -63 -118 -117 -218
-120 -222 -6 -7 -733 429 -832 500 -69 48 -84 47 -70 -8z m354 -404 c11 6 19
1 19 -12 0 -13 13 -18 28 -12 16 6 34 -3 40 -20 7 -17 22 -23 37 -14 18 10 18
5 -2 -18 -23 -29 -21 -32 13 -26 102 20 188 -87 141 -175 -32 -59 -77 -103
-77 -74 0 12 -8 17 -18 11 -10 -6 -13 -29 -8 -52 12 -43 -52 -183 -76 -168 -7
5 -25 -5 -39 -22 -21 -26 -21 -30 0 -25 14 3 30 -4 34 -17 5 -13 -20 -26 -62
-31 -72 -8 -96 10 -40 32 26 9 27 19 6 57 -28 50 -31 64 -47 205 -7 55 -19
154 -29 220 -18 133 7 227 43 163 10 -19 27 -29 37 -22z m728 -73 c-9 -15 -1
-18 23 -11 36 12 110 -154 108 -242 0 -14 12 -25 27 -25 20 0 29 -34 31 -124
3 -142 13 -161 56 -106 22 28 28 30 20 7 -6 -17 -1 -42 11 -54 40 -40 29 -129
-11 -98 -4 3 -23 -11 -42 -30 -19 -19 -65 -35 -102 -35 -37 0 -73 -9 -80 -20
-7 -11 -55 -20 -106 -21 -97 -1 -227 -23 -289 -49 -25 -10 -35 -5 -35 19 0 18
-9 28 -20 21 -12 -7 -16 -20 -10 -29 5 -10 -15 -26 -46 -37 -31 -10 -70 -32
-86 -47 -36 -33 -158 -99 -158 -85 0 31 402 755 484 873 37 52 94 81 64 32
-10 -16 -2 -20 24 -13 21 6 52 14 68 19 17 4 36 23 44 42 8 19 20 35 27 35 6
0 5 -10 -2 -22z"/>
<path d="M1523 1452 c-317 -80 -458 -329 -438 -772 13 -302 95 -458 289 -553
318 -155 708 -23 852 290 65 142 64 588 -2 735 -113 250 -405 374 -701 300z
m373 -180 c318 -165 256 -942 -83 -1034 -326 -88 -530 85 -549 463 -23 484
276 755 632 571z"/>
<path d="M94 1448 c-26 -27 -17 -1317 10 -1344 17 -17 123 -24 350 -24 l326 0
0 80 0 80 -260 0 -259 0 -6 605 -5 605 -71 6 c-39 3 -77 -1 -85 -8z"/>
<path d="M3865 1441 c-33 -14 -45 -37 -45 -80 l0 -61 237 0 c342 0 462 -99
381 -313 -46 -119 -110 -144 -383 -151 l-235 -6 0 -376 0 -376 85 6 85 6 1
300 1 300 126 0 c168 -1 223 -59 331 -350 43 -116 86 -221 97 -235 19 -25 157
-35 178 -14 28 28 -195 515 -269 590 -71 70 -74 77 -36 89 281 89 295 510 21
628 -106 45 -500 75 -575 43z"/>
<path d="M5205 1439 c-33 -13 -45 -34 -45 -78 l0 -61 380 0 380 0 0 48 c0 113
2 112 -347 111 -178 -1 -343 -10 -368 -20z"/>
<path d="M2960 609 l0 -531 85 6 85 6 5 525 6 525 -91 0 -90 0 0 -531z"/>
<path d="M5160 790 l0 -71 335 6 335 5 6 65 7 65 -342 0 -341 0 0 -70z"/>
<path d="M5160 184 c0 -99 20 -104 404 -104 l356 0 0 80 0 80 -380 0 -380 0 0
-56z"/>
</g>
</svg>
